<?xml version="1.0" encoding="utf-8"?>
<!-- Generator: Adobe Illustrator 27.2.0, SVG Export Plug-In . SVG Version: 6.00 Build 0)  -->
<svg version="1.1" id="Ebene_2_00000002358252008588527700000018115988912827239347_"
	 xmlns="http://www.w3.org/2000/svg" xmlns:xlink="http://www.w3.org/1999/xlink" x="0px" y="0px" viewBox="0 0 482.7 305"
	 style="enable-background:new 0 0 482.7 305;" xml:space="preserve">
<style type="text/css">
	.st0{fill:#8CC63F;}
	.st1{fill:#E6E6E6;stroke:#333333;stroke-width:4;stroke-miterlimit:10;}
</style>
<g id="Ebene_1-2">
	<path class="st0" d="M137.4,0H455c15.3,0,27.7,12.4,27.7,27.7v249.6c0,15.3-12.4,27.7-27.7,27.7H137.4c-15.3,0-27.7-12.4-27.7-27.7
		V27.7C109.7,12.4,122.1,0,137.4,0z"/>
	<path class="st1" d="M29.7,95h317.6c15.3,0,27.7,12.4,27.7,27.7v45.6c0,15.3-12.4,27.7-27.7,27.7H29.7C14.4,196,2,183.6,2,168.3
		v-45.6C2,107.4,14.4,95,29.7,95z"/>
</g>
</svg>
