<?xml version="1.0" encoding="UTF-8"?>
<svg id="Ebene_1" data-name="Ebene 1" xmlns="http://www.w3.org/2000/svg" viewBox="0 0 367 521">
  <defs>
    <style>
      .cls-1 {
        letter-spacing: 0em;
      }

      .cls-2 {
        letter-spacing: .01em;
      }

      .cls-3 {
        fill: #e6e6e6;
        stroke: #333;
        stroke-miterlimit: 10;
        stroke-width: 4px;
      }

      .cls-4 {
        letter-spacing: 0em;
      }

      .cls-5 {
        letter-spacing: 0em;
      }

      .cls-6 {
        letter-spacing: .02em;
      }

      .cls-7 {
        letter-spacing: -.01em;
      }

      .cls-8 {
        letter-spacing: .01em;
      }

      .cls-9 {
        letter-spacing: 0em;
      }

      .cls-10 {
        letter-spacing: 0em;
      }

      .cls-11 {
        letter-spacing: 0em;
      }

      .cls-12 {
        font-family: MyriadPro-Regular, 'Myriad Pro';
        font-size: 12px;
      }

      .cls-13 {
        letter-spacing: 0em;
      }

      .cls-14 {
        letter-spacing: 0em;
      }

      .cls-15 {
        letter-spacing: .02em;
      }

      .cls-16 {
        letter-spacing: 0em;
      }

      .cls-17 {
        letter-spacing: .01em;
      }

      .cls-18 {
        letter-spacing: 0em;
      }

      .cls-19 {
        letter-spacing: -.01em;
      }

      .cls-20 {
        letter-spacing: 0em;
      }

      .cls-21 {
        letter-spacing: 0em;
      }

      .cls-22 {
        letter-spacing: 0em;
      }

      .cls-23 {
        letter-spacing: .02em;
      }

      .cls-24 {
        letter-spacing: 0em;
      }

      .cls-25 {
        letter-spacing: 0em;
      }

      .cls-26 {
        letter-spacing: 0em;
      }

      .cls-27 {
        letter-spacing: .03em;
      }

      .cls-28 {
        letter-spacing: 0em;
      }

      .cls-29 {
        letter-spacing: .02em;
      }

      .cls-30 {
        letter-spacing: -.01em;
      }

      .cls-31 {
        letter-spacing: 0em;
      }

      .cls-32 {
        letter-spacing: 0em;
      }

      .cls-33 {
        letter-spacing: 0em;
      }

      .cls-34 {
        letter-spacing: 0em;
      }

      .cls-35 {
        font-family: AcuminConcept-ExtraCondensedBlack, 'Acumin Variable Concept';
        font-size: 14px;
        font-variation-settings: 'wght' 800, 'wdth' 50, 'slnt' 0;
        font-weight: 800;
      }

      .cls-36 {
        letter-spacing: .02em;
      }

      .cls-37 {
        letter-spacing: 0em;
      }

      .cls-38 {
        letter-spacing: 0em;
      }

      .cls-39 {
        letter-spacing: 0em;
      }

      .cls-40 {
        letter-spacing: 0em;
      }

      .cls-41 {
        letter-spacing: .01em;
      }

      .cls-42 {
        letter-spacing: .01em;
      }

      .cls-43 {
        letter-spacing: -.01em;
      }

      .cls-44 {
        letter-spacing: 0em;
      }

      .cls-45 {
        letter-spacing: -.01em;
      }

      .cls-46 {
        letter-spacing: -.01em;
      }

      .cls-47 {
        letter-spacing: 0em;
      }

      .cls-48 {
        letter-spacing: 0em;
      }

      .cls-49 {
        letter-spacing: 0em;
      }
    </style>
  </defs>
  <rect class="cls-3" x="2" y="2" width="363" height="517" rx="23.51" ry="23.51"/>
  <text transform="translate(19.59 62.6)"><tspan class="cls-35"><tspan class="cls-25" x="0" y="0">D</tspan><tspan class="cls-5" x="5.81" y="0">e</tspan><tspan class="cls-13" x="11.14" y="0">s</tspan><tspan x="16.06" y="0">ign </tspan><tspan class="cls-18" x="31.92" y="0">S</tspan><tspan class="cls-28" x="37.17" y="0">y</tspan><tspan class="cls-44" x="42.29" y="0">s</tspan><tspan class="cls-34" x="47.29" y="0">t</tspan><tspan class="cls-13" x="50.76" y="0">e</tspan><tspan class="cls-34" x="56.04" y="0">m</tspan><tspan class="cls-11" x="64.22" y="0">:</tspan><tspan x="67.49" y="0"> </tspan><tspan class="cls-1" x="69.28" y="0">y</tspan><tspan class="cls-9" x="74.38" y="0">e</tspan><tspan x="79.77" y="0">t an</tspan><tspan class="cls-5" x="96.12" y="0">o</tspan><tspan class="cls-22" x="101.58" y="0">t</tspan><tspan x="105.07" y="0">h</tspan><tspan class="cls-1" x="110.76" y="0">e</tspan><tspan x="116.04" y="0">r m</tspan><tspan class="cls-25" x="129.96" y="0">o</tspan><tspan x="135.39" y="0">d</tspan><tspan class="cls-13" x="140.93" y="0">e</tspan><tspan class="cls-38" x="146.21" y="0">r</tspan><tspan class="cls-33" x="150.16" y="0">n b</tspan><tspan class="cls-25" x="163.18" y="0">u</tspan><tspan class="cls-23" x="168.89" y="0">z</tspan><tspan class="cls-17" x="173.58" y="0">z</tspan><tspan class="cls-25" x="178.17" y="0">w</tspan><tspan x="185.97" y="0">o</tspan><tspan class="cls-18" x="191.36" y="0">r</tspan><tspan class="cls-11" x="195.36" y="0">d</tspan><tspan x="200.82" y="0">?</tspan></tspan><tspan class="cls-12"><tspan class="cls-45" x="0" y="54">A</tspan><tspan class="cls-24" x="7.22" y="54">t first glan</tspan><tspan class="cls-37" x="57.19" y="54">c</tspan><tspan class="cls-30" x="62.5" y="54">e</tspan><tspan x="68.36" y="54">, one is </tspan><tspan class="cls-31" x="105.3" y="54">r</tspan><tspan x="109.1" y="54">eminded of the </tspan><tspan class="cls-45" x="188.5" y="54">w</tspan><tspan x="197.22" y="54">ell-</tspan><tspan class="cls-29" x="212.58" y="54">k</tspan><tspan x="218.41" y="54">n</tspan><tspan class="cls-26" x="225.07" y="54">o</tspan><tspan x="231.57" y="54">wn </tspan><tspan class="cls-37" x="249.61" y="54">c</tspan><tspan x="254.91" y="54">on</tspan><tspan class="cls-37" x="268.16" y="54">c</tspan><tspan x="273.46" y="54">ept of desi</tspan><tspan class="cls-37" x="325.79" y="54">g</tspan><tspan x="332.43" y="54">n</tspan></tspan><tspan class="cls-12"><tspan x="0" y="81">p</tspan><tspan class="cls-16" x="6.83" y="81">a</tspan><tspan class="cls-24" x="12.56" y="81">t</tspan><tspan class="cls-37" x="16.54" y="81">t</tspan><tspan x="20.44" y="81">e</tspan><tspan class="cls-4" x="26.45" y="81">r</tspan><tspan class="cls-32" x="30.42" y="81">n</tspan><tspan class="cls-46" x="37.08" y="81">s</tspan><tspan class="cls-24" x="41.7" y="81">, which o</tspan><tspan class="cls-7" x="86.19" y="81">ff</tspan><tspan x="93.04" y="81">er an abst</tspan><tspan class="cls-47" x="141.84" y="81">r</tspan><tspan x="145.7" y="81">a</tspan><tspan class="cls-2" x="151.49" y="81">c</tspan><tspan x="157.02" y="81">t app</tspan><tspan class="cls-31" x="182.97" y="81">r</tspan><tspan x="186.78" y="81">oach </tspan><tspan class="cls-7" x="213.73" y="81">f</tspan><tspan x="217.08" y="81">or solving p</tspan><tspan class="cls-45" x="275.62" y="81">r</tspan><tspan x="279.43" y="81">oblems on </tspan></tspan><tspan class="cls-12"><tspan x="0" y="108">a mo</tspan><tspan class="cls-45" x="24.92" y="108">r</tspan><tspan x="28.73" y="108">e </tspan><tspan class="cls-10" x="37.28" y="108">t</tspan><tspan x="41.18" y="108">echnical or so</tspan><tspan class="cls-42" x="109.63" y="108">f</tspan><tspan class="cls-20" x="113.27" y="108">t</tspan><tspan class="cls-14" x="117.35" y="108">w</tspan><tspan x="126.13" y="108">a</tspan><tspan class="cls-45" x="131.91" y="108">r</tspan><tspan x="135.72" y="108">e a</tspan><tspan class="cls-45" x="150.06" y="108">r</tspan><tspan x="153.86" y="108">chi</tspan><tspan class="cls-10" x="168.71" y="108">t</tspan><tspan x="172.61" y="108">e</tspan><tspan class="cls-41" x="178.62" y="108">c</tspan><tspan x="184.15" y="108">tu</tspan><tspan class="cls-45" x="194.73" y="108">r</tspan><tspan class="cls-27" x="198.54" y="108">e</tspan><tspan class="cls-24" x="204.88" y="108">-specific le</tspan><tspan class="cls-31" x="257.38" y="108">v</tspan><tspan x="263.04" y="108">e</tspan><tspan class="cls-45" x="269.05" y="108">l</tspan><tspan x="271.76" y="108">.</tspan></tspan><tspan class="cls-12"><tspan class="cls-8" x="0" y="162">I</tspan><tspan class="cls-32" x="2.99" y="162">n the mea</tspan><tspan class="cls-16" x="53.18" y="162">n</tspan><tspan x="59.79" y="162">tim</tspan><tspan class="cls-30" x="76.58" y="162">e</tspan><tspan x="82.45" y="162">, with desi</tspan><tspan class="cls-37" x="132.63" y="162">g</tspan><tspan x="139.27" y="162">n s</tspan><tspan class="cls-37" x="153.23" y="162">y</tspan><tspan x="158.81" y="162">s</tspan><tspan class="cls-37" x="163.56" y="162">t</tspan><tspan class="cls-24" x="167.46" y="162">ems a </tspan><tspan class="cls-31" x="199.1" y="162">w</tspan><tspan x="207.81" y="162">ell thoug</tspan><tspan class="cls-14" x="252.57" y="162">h</tspan><tspan class="cls-47" x="259.18" y="162">t</tspan><tspan class="cls-36" x="263.1" y="162">-</tspan><tspan x="267" y="162">out</tspan></tspan><tspan class="cls-12"><tspan x="0" y="189">o</tspan><tspan class="cls-49" x="6.59" y="189">r</tspan><tspan x="10.42" y="189">ganiz</tspan><tspan class="cls-16" x="37.51" y="189">a</tspan><tspan class="cls-24" x="43.25" y="189">tion of </tspan><tspan class="cls-21" x="78.46" y="189">e</tspan><tspan class="cls-24" x="84.43" y="189">xisting and </tspan><tspan class="cls-45" x="141.99" y="189">r</tspan><tspan x="145.8" y="189">ecu</tspan><tspan class="cls-40" x="163.8" y="189">rr</tspan><tspan class="cls-24" x="171.74" y="189">ing UI </tspan><tspan class="cls-37" x="203.64" y="189">c</tspan><tspan class="cls-24" x="208.94" y="189">ompone</tspan><tspan class="cls-14" x="251.62" y="189">n</tspan><tspan x="258.24" y="189">t</tspan><tspan class="cls-46" x="262.21" y="189">s</tspan><tspan class="cls-24" x="266.83" y="189">,</tspan></tspan><tspan class="cls-12"><tspan class="cls-37" x="0" y="216">c</tspan><tspan x="5.3" y="216">olor </tspan><tspan class="cls-10" x="27.78" y="216">c</tspan><tspan x="33.08" y="216">omposition</tspan><tspan class="cls-46" x="90.68" y="216">s</tspan><tspan class="cls-24" x="95.3" y="216">, i</tspan><tspan class="cls-37" x="103.14" y="216">c</tspan><tspan x="108.44" y="216">on</tspan><tspan class="cls-46" x="121.69" y="216">s</tspan><tspan class="cls-24" x="126.31" y="216">, and e</tspan><tspan class="cls-45" x="159.11" y="216">v</tspan><tspan x="164.76" y="216">en l</tspan><tspan class="cls-48" x="182.81" y="216">a</tspan><tspan class="cls-45" x="188.49" y="216">y</tspan><tspan x="194.03" y="216">out standa</tspan><tspan class="cls-45" x="247.46" y="216">r</tspan><tspan class="cls-24" x="251.26" y="216">ds has been </tspan></tspan><tspan class="cls-12"><tspan x="0" y="243">establishe</tspan><tspan class="cls-31" x="50.41" y="243">d</tspan><tspan x="57.06" y="243">. </tspan></tspan><tspan class="cls-12"><tspan class="cls-26" x="0" y="297">T</tspan><tspan x="5.88" y="297">he </tspan><tspan class="cls-10" x="21.1" y="297">t</tspan><tspan x="25" y="297">e</tspan><tspan class="cls-40" x="31.01" y="297">r</tspan><tspan x="34.98" y="297">m desi</tspan><tspan class="cls-37" x="67.87" y="297">g</tspan><tspan x="74.51" y="297">n s</tspan><tspan class="cls-37" x="88.46" y="297">y</tspan><tspan x="94.04" y="297">s</tspan><tspan class="cls-37" x="98.79" y="297">t</tspan><tspan class="cls-24" x="102.69" y="297">em stands </tspan><tspan class="cls-43" x="156.49" y="297">f</tspan><tspan x="159.84" y="297">or a p</tspan><tspan class="cls-45" x="188.05" y="297">r</tspan><tspan x="191.85" y="297">o</tspan><tspan class="cls-7" x="198.44" y="297">f</tspan><tspan x="201.79" y="297">essional p</tspan><tspan class="cls-14" x="251.35" y="297">a</tspan><tspan x="257.08" y="297">t</tspan><tspan class="cls-37" x="261.06" y="297">t</tspan><tspan class="cls-24" x="264.96" y="297">e</tspan><tspan class="cls-40" x="270.97" y="297">r</tspan><tspan x="274.94" y="297">n </tspan><tspan class="cls-37" x="284.14" y="297">t</tspan><tspan x="288.04" y="297">o </tspan></tspan><tspan class="cls-12"><tspan x="0" y="324">s</tspan><tspan class="cls-37" x="4.75" y="324">y</tspan><tspan x="10.33" y="324">s</tspan><tspan class="cls-37" x="15.08" y="324">t</tspan><tspan class="cls-24" x="18.98" y="324">em</tspan><tspan class="cls-16" x="35" y="324">a</tspan><tspan class="cls-24" x="40.74" y="324">tically o</tspan><tspan class="cls-49" x="79.13" y="324">r</tspan><tspan x="82.96" y="324">gani</tspan><tspan class="cls-26" x="104.92" y="324">z</tspan><tspan x="109.97" y="324">e and simplify (pa</tspan><tspan class="cls-6" x="198.03" y="324">r</tspan><tspan x="202.25" y="324">tial) </tspan><tspan class="cls-45" x="223.59" y="324">r</tspan><tspan x="227.4" y="324">euse of al</tspan><tspan class="cls-45" x="274.58" y="324">r</tspan><tspan x="278.38" y="324">eady </tspan></tspan><tspan class="cls-12"><tspan class="cls-21" x="0" y="351">e</tspan><tspan class="cls-24" x="5.98" y="351">xisting UI f</tspan><tspan class="cls-45" x="58.46" y="351">r</tspan><tspan x="62.27" y="351">o</tspan><tspan class="cls-14" x="68.85" y="351">n</tspan><tspan class="cls-47" x="75.47" y="351">t</tspan><tspan class="cls-36" x="79.38" y="351">-</tspan><tspan class="cls-24" x="83.28" y="351">end s</tspan><tspan class="cls-37" x="110.01" y="351">y</tspan><tspan x="115.59" y="351">s</tspan><tspan class="cls-37" x="120.35" y="351">t</tspan><tspan x="124.25" y="351">em</tspan><tspan class="cls-19" x="140.27" y="351">s</tspan><tspan class="cls-24" x="144.89" y="351">. </tspan><tspan class="cls-39" x="149.91" y="351">I</tspan><tspan x="152.9" y="351">n other </tspan><tspan class="cls-45" x="191.81" y="351">w</tspan><tspan x="200.52" y="351">o</tspan><tspan class="cls-45" x="207.11" y="351">r</tspan><tspan x="210.91" y="351">ds: </tspan><tspan class="cls-37" x="227.46" y="351">t</tspan><tspan x="231.36" y="351">o s</tspan><tspan class="cls-49" x="245.24" y="351">a</tspan><tspan class="cls-45" x="250.93" y="351">v</tspan><tspan class="cls-24" x="256.58" y="351">e </tspan><tspan class="cls-31" x="265.14" y="351">w</tspan><tspan x="273.85" y="351">o</tspan><tspan class="cls-40" x="280.44" y="351">r</tspan><tspan class="cls-15" x="284.41" y="351">k</tspan><tspan x="290.24" y="351">ing time!</tspan></tspan></text>
</svg>